<svg xmlns:xlink="http://www.w3.org/1999/xlink" fill="currentColor" viewBox="0 0 1000 300"><defs><style>.808biz_svg__cls-1{fill:none}.808biz_svg__cls-2{fill:#444343;opacity:0.74}.808biz_svg__cls-3{fill:#93121f}.808biz_svg__cls-4{clip-path:url(#808biz_svg__clip-path)}.808biz_svg__cls-5{fill:#4c0505}.808biz_svg__cls-6{fill:#ed1e79}</style><clipPath id="808biz_svg__clip-path"><path d="M823.73,59.14c-.1-.15-.18-.3-.28-.44l-.27-.45c-.09-.15-.18-.3-.28-.44l-.27-.45-.27-.45-.28-.44-.27-.44c-.09-.15-.18-.3-.28-.45s-.17-.3-.27-.44l-.27-.45c-.09-.15-.18-.3-.28-.44l-.27-.45-.27-.44c-.1-.15-.18-.3-.28-.45l-.27-.44c-.09-.15-.18-.3-.28-.45l-.27-.44-.27-.45c-.1-.15-.18-.3-.28-.44l-.27-.45c-.09-.15-.18-.3-.28-.44s-.17-.3-.27-.45l-.27-.44c-.09-.15-.18-.3-.28-.45l-.27-.44c-.09-.15-.18-.3-.28-.45s-.17-.3-.27-.45l-.27-.44c-.09-.15-.18-.3-.28-.44-4.56-7.47-13.86-12.15-26-12.15-17.24,0-29.29,9.57-29.13,23.22a20.28,20.28,0,0,0,3.89,12.27l.22.35.27.44.27.45c.09.15.18.3.28.44l.27.45c.09.15.18.3.28.44l.27.45.27.44c.09.15.18.3.28.45l.27.44c.09.15.18.3.28.45s.17.3.27.44l.27.45c.09.15.18.3.28.44l.27.45.27.44c.09.15.18.3.28.45l.27.44c.09.15.18.3.28.45l.27.44.27.45c.09.15.18.3.28.44l.27.45c.09.15.18.3.28.44s.17.3.27.45l.07.12c4.18,8.07,13.83,13.46,26.38,13.46,17.89,0,29.78-10,29.62-23.08A21.55,21.55,0,0,0,824,59.59ZM190.31,170l-.27-.45-.27-.44-.28-.45-.27-.44-.28-.45c-.08-.15-.18-.29-.27-.44l-.27-.45-.28-.44-.27-.45-.28-.44c-.08-.15-.18-.3-.27-.45l-.27-.44-.28-.45-.27-.44c-.09-.15-.18-.3-.28-.45s-.18-.29-.27-.44l-.27-.45-.28-.44c-.08-.15-.18-.3-.27-.45l-.27-.44-.28-.45-.27-.44-.28-.45c-.08-.15-.18-.29-.27-.44l-.27-.45-.28-.44-.27-.45-.28-.44c-.08-.15-.18-.3-.27-.45A49.29,49.29,0,0,0,168.19,142c14.6-9.35,20.8-22.14,20.8-34a36.37,36.37,0,0,0-5.71-19.46l-.27-.44c-.1-.15-.19-.3-.28-.45l-.27-.44c-.09-.15-.18-.3-.28-.45l-.27-.44-.27-.45c-.1-.14-.19-.29-.28-.44l-.27-.45-.28-.44-.27-.45-.27-.44c-.09-.15-.18-.3-.28-.45l-.27-.44c-.09-.15-.18-.3-.28-.45l-.27-.44-.27-.45-.28-.44-.27-.45-.27-.44c-.1-.15-.19-.3-.28-.45l-.27-.44c-.09-.15-.18-.3-.28-.45l-.27-.44-.27-.45-.28-.44-.27-.45-.28-.44-.27-.45-.27-.44c-.09-.15-.18-.3-.28-.45-9.45-15.48-31.27-27.26-65.71-27.26-43,0-76.29,19.66-76.29,50.6A36.71,36.71,0,0,0,38.67,118l.27.45.28.44.27.45c.09.15.18.3.28.44s.18.3.27.45l.27.44.28.45.27.44.27.45.28.44.27.45c.09.15.18.3.28.44l.27.45.27.44.28.45.27.44.27.45.28.44.27.45.28.44.27.45.27.44.28.45.27.44c.09.15.18.3.28.45l.27.44.27.45.28.44.27.45c.09.15.18.3.28.44A44,44,0,0,0,55,141.12c-17.35,8.81-28.46,22.5-28.46,41.37a39.15,39.15,0,0,0,6.3,21.25l.27.45.28.44.27.45.27.44c.1.15.18.3.28.45l.27.44.27.45c.1.14.18.29.28.44l.27.45.28.44.27.45.27.44c.1.15.18.3.28.45l.27.44c.09.15.18.3.28.45l.27.44.27.45c.1.14.18.29.28.44l.27.45.27.44c.1.15.18.3.28.45l.27.44c.09.15.18.3.28.45l.27.44.27.45c.1.14.18.29.28.44l.27.45.28.44.27.45.27.44c10.5,16.91,34.77,29.56,73.19,29.56,49.12,0,82.29-21.11,82.29-55a40.46,40.46,0,0,0-5.89-21.26ZM115.48,93.23A21.6,21.6,0,0,1,126.76,96a24.6,24.6,0,0,1,.21,3.21c0,9-7.5,17.84-15.74,19.74a51.78,51.78,0,0,1-15.5-7.33c0-.14,0-.28,0-.43C95.72,102,101.85,93.23,115.48,93.23ZM108.07,200.8a23.94,23.94,0,0,1-14.72-4.72,23.62,23.62,0,0,1-.42-4.37c0-11.66,7.42-20.17,18.95-23.69a43.4,43.4,0,0,1,17.76,8.6,21.9,21.9,0,0,1,.39,4.09C130,191.56,121.83,200.8,108.07,200.8Zm879.66,5.11v-.45h-.28V205h-.27v-.45h-.28v-.44h-.27v-.45h-.27v-.44h-.28v-.45h-.27v-.44h-.27v-.45h-.28v-.44H985V201h-.28v-.44h-.27v-.45h-.27v-.44h-.28v-.45h-.27v-.44h-.28v-.45h-.27v-.44h-.27v-.45h-.28V197h-.27v-.45H982v-.44h-.28v-.45h-.27v-.44h-.28v-.45h-.27v-.44h-.27v-.45h-.28v-.44h-.27V193h-.28v-.44h-.27v-.45h-44c3.92-4,7.87-8.2,11.83-12.38l37.83-42.08V108.12h-.27v-.45h-.28v-.44h-.27v-.45H984v-.44h-.28v-.45h-.27v-.44h-.28V105h-.27v-.44h-.27v-.45h-.28v-.44h-.27v-.45h-.28v-.44h-.27v-.45h-.27v-.44H981v-.45h-.27V101h-.27v-.45h-.28v-.44h-.27v-.45h-.28v-.44h-.27v-.45h-.27v-.44h-.28v-.45h-.27v-.44h-.28V97H978v-.44h-.27V96.1h-.28v-.44h-.27v-.45h-.27v-.44h-.28v-.45h-128v38h.28v.45h.27v.44h.28v.45h.27v.44H850v.45h.28v.44h.27v.45h.27v.44h.28v.45h.27v.44h.28v.45h.27v.44h.27v.45h.28v.44h.27V139H853v.44h.27v.45h.27v.44h.28v.45h.27v.44h.28v.45h.27v.44h.27v.45h.28V143h.27v.45h.27v.44H856v.45h.27v.44h.28v.45h.27v.44h.27v.45h37.82c-3.57,3.59-7.24,7.35-11.14,11.38l-40.22,44.69v27.92h.27v.45h.28V231h.27v.45h.28v.44h.27v.45h.27v.44h.28v.45h.27v.44H846v.45h.28v.44h.27V235h.28v.44h.27v.45h.27v.44h.28v.45h.27v.44h.28v.45h.27v.44h.27v.45H849V239h.27v.45h.27v.44h.28v.45h.27v.44h.28v.45h.27v.44H851v.45h.28v.44h.27V243h.28v.44h.27v.45H988v-38ZM827.06,107.67h-.27v-.44h-.27v-.45h-.28v-.44H826v-.45h-.28v-.44h-.27V105h-.27v-.44h-.28v-.45h-.27v-.44h-.27v-.45h-.28v-.44h-.27v-.45h-.28v-.44h-.27v-.45H823V101h-.28v-.45h-.27v-.44h-.28v-.45h-.27v-.44h-.27v-.45h-.28v-.44H821v-.45h-.27v-.44h-.28V97h-.27v-.44h-.28V96.1h-.27v-.44h-.27v-.45h-.28v-.44h-.27v-.45H761V230.06h.28v.45h.27V231h.28v.45h.27v.44h.27v.45h.28v.44h.27v.45h.28v.44h.27v.45h.27v.44H764V235h.27v.44h.27v.45h.28v.44h.27v.45h.28v.44h.27v.45h.27v.44h.28v.45h.27V239h.28v.45H767v.44h.27v.45h.28v.44h.27v.45h.27v.44h.28v.45h.27v.44h.28V243h.27v.44h.27v.45h57.86V108.12h-.28ZM730.6,130.18l-.27-.44-.27-.45c-.1-.14-.18-.29-.28-.44l-.27-.45c-.1-.14-.18-.29-.28-.44l-.27-.45-.27-.44c-.1-.15-.18-.3-.28-.45l-.27-.44c-.09-.15-.18-.3-.28-.45l-.27-.44-.27-.45c-.1-.14-.18-.29-.28-.44l-.27-.45-.27-.44c-.1-.15-.18-.3-.28-.45l-.27-.44c-.1-.15-.18-.3-.28-.45l-.27-.44-.27-.45-.06-.09c-10.16-18.29-28.51-29.65-52.38-29.65-14.86,0-26.58,3.76-35.28,9.66V49.46h-.28V49h-.27v-.45h-.27v-.44h-.28v-.45H636v-.44h-.28v-.45h-.27v-.44h-.27V45.9h-.28v-.44h-.27V45h-.28v-.44h-.27v-.45h-.27v-.44h-.28v-.45h-.27v-.44H633v-.45h-.28V41.9h-.27v-.45h-.28V41h-.27v-.45h-.27v-.44h-.28v-.45h-.27v-.44h-.28v-.45h-.27v-.44h-.27v-.45H630v-.44h-.27V37h-.27v-.44h-.28v-.45h-.27v-.44h-57.7V187c0,16.08-.67,32.71-1.34,43h.31l0,.45h.3l0,.44h.3c0,.15,0,.31,0,.45h.3l0,.44h.3c0,.15,0,.31,0,.45h.3c0,.14,0,.3,0,.44h.3l0,.45h.3l0,.44h.31c0,.15,0,.31,0,.45h.3l0,.44h.3c0,.15,0,.31,0,.45h.3l0,.44h.3c0,.15,0,.31,0,.45h.31l0,.44h.3l0,.45h.3c0,.14,0,.3,0,.44h.3l0,.45h.3l0,.44h.3c0,.15,0,.31,0,.45h.3l0,.44h.3c0,.15,0,.31,0,.45h.31l0,.44h.3c0,.15,0,.31,0,.45h.3c0,.14,0,.3,0,.44h.3c0,.15,0,.31,0,.45h.3l0,.44h.31l0,.45h.3l0,.44h.3c0,.15,0,.31,0,.45h.3l0,.44h.3l0,.45H627.3l2.5-16.77h.67c10.74,15.07,26.59,19.56,42.32,19.56,36.65,0,69.64-25.55,69.64-73.9.15-16.5-4-31-11.7-42.36A2.39,2.39,0,0,0,730.6,130.18Zm-80.55,65a21.89,21.89,0,0,1-12.39-3.73,24.64,24.64,0,0,1-.25-3.53v-24a26,26,0,0,1,1.13-7.13c2.16-8,10.4-14,19.83-14,6.47,0,11.66,1.75,15.64,4.92a52.08,52.08,0,0,1,1.69,13.81C675.7,184,666,195.19,650.05,195.19ZM359.6,94.26l-.28-.44-.27-.45c-.09-.15-.18-.3-.28-.44l-.27-.45-.27-.44-.28-.45-.27-.44c-.09-.15-.18-.3-.28-.45l-.27-.44-.27-.45-.28-.44-.27-.45-.27-.45c-.1-.14-.19-.29-.28-.44l-.27-.44c-.09-.15-.18-.3-.28-.45l-.27-.45-.27-.44-.28-.44-.27-.45c-.09-.15-.18-.3-.28-.45l-.27-.44L353.3,84l-.28-.45-.27-.45-.27-.44-.28-.44-.27-.45c-.09-.15-.18-.3-.28-.45-11.85-19.49-32.21-33.41-65-33.41-57.82,0-80.59,44.67-80.59,93,0,20.6,4.24,41.52,14.5,58.19l.27.45.28.44.27.45.27.44.28.45.27.44.27.45.28.44.27.45.28.44.27.45.27.44.28.45.27.44c.09.15.18.3.28.45l.27.44.27.45.28.44.27.45.27.44.28.45.27.44c.09.15.18.3.28.45l.27.44.27.45.28.44.27.45.28.44.27.45.27.44c12.2,20.14,33.07,34.19,65.71,34.19,52.11,0,80-36.8,80-93,0-20.23-3.92-41.8-14.52-59ZM286.77,195.85a16.52,16.52,0,0,1-10.45-3.44c-2.84-8.86-4.27-21.38-4.14-38.22-.16-39.38,8.68-55.31,22.91-55.31a14.25,14.25,0,0,1,8.8,2.88c2.89,9,4.34,21.87,4.34,38.64C308.23,179.52,300.66,195.85,286.77,195.85Zm261-25.86-.27-.45-.27-.44-.28-.45-.27-.44-.28-.45c-.08-.15-.18-.29-.27-.44l-.27-.45-.28-.44-.27-.45-.28-.44c-.08-.15-.18-.3-.27-.45l-.27-.44-.28-.45-.27-.44-.27-.45-.28-.44-.27-.45-.28-.44c-.08-.15-.18-.3-.27-.45l-.27-.44-.28-.45-.27-.44-.27-.45-.28-.44-.27-.45-.28-.44-.27-.45-.27-.44-.28-.45A49.29,49.29,0,0,0,525.65,142c14.6-9.35,20.81-22.14,20.81-34a36.38,36.38,0,0,0-5.72-19.46l-.27-.44c-.1-.15-.19-.3-.28-.45l-.27-.44c-.09-.15-.18-.3-.28-.45l-.27-.44-.27-.45-.28-.44-.27-.45-.28-.44L538,84.1l-.27-.44c-.09-.15-.18-.3-.28-.45l-.27-.44-.27-.45c-.1-.14-.19-.29-.28-.44l-.27-.45-.28-.44-.27-.45-.27-.44c-.09-.15-.18-.3-.28-.45l-.27-.44c-.09-.15-.18-.3-.28-.45l-.27-.44-.27-.45-.28-.44-.27-.45-.27-.44c-.1-.15-.19-.3-.28-.45l-.27-.44c-.09-.15-.18-.3-.28-.45-9.45-15.48-31.27-27.26-65.71-27.26-43,0-76.29,19.66-76.29,50.6A36.71,36.71,0,0,0,396.13,118l.27.45.28.44.27.45c.09.15.18.3.28.44s.18.3.27.45l.27.44.28.45.27.44.27.45.28.44.27.45c.09.15.18.3.28.44l.27.45.27.44.28.45.27.44c.09.15.18.3.28.45s.18.3.27.44l.27.45.28.44.27.45.27.44.28.45.27.44c.09.15.18.3.28.45l.27.44.27.45.28.44.27.45c.09.15.18.3.28.44a44,44,0,0,0,8.06,9.79c-17.35,8.81-28.46,22.5-28.46,41.37a39.15,39.15,0,0,0,6.3,21.25l.27.45.28.44.27.45.27.44c.1.15.18.3.28.45l.27.44.27.45c.1.14.18.29.28.44l.27.45.28.44.27.45.27.44c.1.15.18.3.28.45l.27.44c.09.15.18.3.28.45l.27.44.27.45c.1.14.18.29.28.44l.27.45.28.44c.09.15.17.3.27.45l.27.44c.09.15.18.3.28.45l.27.44.27.44c.1.15.18.3.28.45l.27.45.28.44.27.44.27.45c10.5,16.91,34.77,29.56,73.19,29.56,49.12,0,82.29-21.11,82.29-55a40.46,40.46,0,0,0-5.89-21.26ZM472.94,93.23A21.6,21.6,0,0,1,484.22,96a24.6,24.6,0,0,1,.21,3.21c0,9-7.5,17.84-15.74,19.74a51.9,51.9,0,0,1-15.5-7.33c0-.14,0-.28,0-.43C453.18,102,459.31,93.23,472.94,93.23ZM465.53,200.8a23.94,23.94,0,0,1-14.72-4.72,23.62,23.62,0,0,1-.42-4.37c0-11.66,7.42-20.17,18.95-23.69a43.4,43.4,0,0,1,17.76,8.6,21.9,21.9,0,0,1,.39,4.09C487.49,191.56,479.29,200.8,465.53,200.8Z" class="808biz_svg__cls-1"/></clipPath></defs><g id="808biz_svg__shadow"><path d="M163,144.64c.16-.16.31-.33.46-.5l.52-.54.51-.55.51-.55c.18-.18.35-.36.52-.55l.51-.54.51-.55c.18-.18.35-.37.52-.55l.51-.55.51-.55.52-.54.51-.55.51-.55c.18-.18.35-.36.52-.55l.51-.54.51-.55c.18-.18.35-.37.52-.55l.51-.55c.18-.18.34-.36.51-.54l.52-.55.51-.55c.18-.18.35-.36.52-.55l.51-.54.51-.55c.18-.18.35-.37.52-.55l.51-.55.51-.55c7.71-8,11.11-17.33,11.11-26.13,0-23.74-23.49-46.28-71.16-46.28-28.28,0-52.36,8.52-65.54,23.15l-.51.55c-.17.18-.35.36-.51.55l-.52.54-.51.55-.51.55c-.17.18-.35.36-.52.55l-.51.55c-.17.18-.35.36-.51.54s-.35.37-.52.55-.35.36-.51.55-.35.36-.51.55l-.52.54-.51.55c-.17.19-.35.36-.52.55l-.51.55c-.17.18-.35.36-.51.54s-.35.37-.52.55L42,90.5c-.17.18-.35.36-.51.55s-.35.36-.52.55l-.51.54-.51.55c-.17.18-.35.36-.52.55l-.51.55c-.17.18-.35.36-.51.54s-.35.37-.52.55l-.51.55c-.17.18-.35.36-.51.55s-.35.36-.52.55l-.51.54a40.33,40.33,0,0,0-11.26,28c0,13.52,7.47,26.61,23,35.81-1,.91-1.87,1.83-2.73,2.79-.17.18-.35.36-.52.55l-.51.55c-.17.18-.35.36-.51.54s-.35.37-.52.55l-.51.55c-.17.18-.35.36-.52.55l-.51.55-.51.54c-.17.19-.35.37-.52.55l-.51.55-.51.55-.52.54-.51.55c-.17.19-.35.36-.51.55s-.35.36-.52.55l-.51.54-.51.55c-.17.19-.35.37-.52.55l-.51.55c-.17.18-.35.36-.51.55l-.52.54-.51.55c-.17.18-.35.36-.51.55s-.35.36-.52.55l-.51.54-.51.55c-.17.18-.35.36-.52.55l-.51.55c-.17.18-.35.36-.51.55l-.52.54A41.19,41.19,0,0,0,18,209c0,26.18,26.1,50.36,79.21,50.36,31,0,55.64-8.42,69.61-23.14l.51-.54c.18-.18.34-.37.51-.55s.34-.37.52-.55l.51-.55c.18-.18.34-.36.51-.54s.34-.37.52-.55l.51-.55c.18-.18.34-.36.51-.55l.52-.54.51-.55c.18-.18.34-.37.51-.55s.35-.37.52-.55l.51-.55c.18-.17.34-.36.51-.54s.35-.37.52-.55l.51-.55c.18-.18.34-.36.52-.55l.51-.54.51-.55c.18-.18.34-.37.52-.55l.51-.55c.18-.18.34-.36.51-.54s.34-.37.52-.55l.51-.55c.18-.18.34-.37.51-.55l.52-.54.51-.55c.18-.18.34-.37.51-.55s.34-.37.52-.55l.51-.55a45.09,45.09,0,0,0,13.19-32.37C195.41,166.24,180.28,151.89,163,144.64ZM94.69,106.23A28.58,28.58,0,0,1,98.5,106c14.35,0,20,10,20,19.81a16.58,16.58,0,0,1-.23,2.63c-13.73-4.27-23.59-11.75-23.59-21.42C94.66,106.73,94.68,106.48,94.69,106.23Zm26.69,103.48a27.38,27.38,0,0,1-5.88.64c-14.79,0-23.63-11.24-23.63-22.88a25.18,25.18,0,0,1,.7-5.91c.76-.29,1.53-.56,2.33-.8,14.24,3.44,26.64,12.76,26.64,26.48A20.35,20.35,0,0,1,121.38,209.71ZM294,57.49c-25.5,0-44.18,8.7-57.1,22.57l-.51.54-.52.55-.51.55-.51.55c-.18.18-.35.36-.52.55l-.51.54-.51.55c-.18.18-.35.36-.52.55l-.51.55-.52.54-.51.55-.51.55-.52.55-.51.54-.51.55-.51.55c-.18.18-.35.36-.52.55l-.51.55-.52.54-.51.55-.51.55c-.18.18-.35.36-.52.55l-.51.54-.51.55c-.18.18-.35.37-.52.55l-.51.55-.51.54-.52.55-.51.55-.51.55c-16.73,17.57-24,43.68-24,71,0,45.18,20.38,91.93,79.92,91.93,24.57,0,43.74-8.18,57.15-22.71l.51-.55.51-.55c.17-.18.35-.36.51-.55s.35-.36.52-.55l.51-.54.52-.55.51-.55.51-.55.52-.54.51-.55.51-.55c.17-.18.35-.36.52-.55l.51-.54.51-.55.52-.55.51-.55.51-.55.52-.54.51-.55.51-.55c.18-.18.35-.36.52-.55l.51-.54.51-.55c.18-.18.35-.37.52-.55l.51-.55c.17-.18.35-.36.51-.54l.52-.55.51-.55c.17-.18.35-.36.52-.55l.51-.54c15.37-16.3,23.33-40.78,23.33-70.82C373.33,106.49,355.65,57.49,294,57.49Zm1.59,147.85q-.69.06-1.41.06c-15,0-23.4-15.81-23.08-55.45-.07-16.79,1.51-29.3,4.43-38.15a17.84,17.84,0,0,1,2.56-.18c14.38,0,21.63,17.76,21.63,55.31C299.74,183.8,298.33,196.43,295.61,205.34ZM805.18,97.65c.17-.18.35-.36.51-.55s.35-.36.51-.54.35-.36.52-.55.35-.36.51-.55.35-.36.52-.55l.51-.54.51-.55c.18-.18.35-.36.52-.55l.51-.55c.17-.18.35-.36.51-.54s.35-.37.52-.55l.51-.55c.17-.18.35-.36.51-.55l.52-.54.51-.55.51-.55c.18-.18.35-.36.52-.55l.51-.55c.17-.18.35-.36.51-.54s.35-.37.52-.55l.51-.55c.17-.18.35-.36.51-.55l.52-.54.51-.55c.18-.18.35-.36.51-.55s.35-.36.52-.55l.51-.54.52-.55.51-.55c.17-.18.35-.36.51-.55a20.09,20.09,0,0,0,5.75-14.36c-.18-13.65-11.73-23.22-29.13-23.22-10.8,0-19.56,3.76-24.56,9.91-.08.1-.17.19-.26.29l-.51.55c-.17.18-.35.36-.51.54s-.35.37-.52.55l-.51.55c-.17.18-.35.36-.51.55l-.52.54-.51.55c-.17.18-.35.36-.51.55s-.35.36-.52.55l-.51.54-.51.55c-.18.18-.35.37-.52.55l-.51.55c-.17.18-.35.36-.51.55l-.52.54-.51.55c-.18.18-.35.36-.52.55l-.51.55c-.17.18-.35.36-.51.54l-.52.55-.51.55c-.17.18-.35.36-.51.55s-.35.36-.52.55l-.51.54c-.17.18-.35.36-.51.55s-.35.36-.52.55-.18.18-.26.28a20.45,20.45,0,0,0-6.62,15.48c-.11,9.46,6,17.28,15.76,20.91V105h-.51v.55h-.52v.54h-.51v.55h-.51v.55h-.52v.55h-.51v.54h-.52v.55h-.51v.55h-.51v.55h-.52v.55h-.51V111h-.51v.55h-.52v.55h-.51v.55h-.51v.54h-.52v.55h-.51v.55h-.51v.55h-.52v.54h-.51v.55h-.51v.55h-.52V117h-.51v.55h-.51v.54h-.52v.55h-.51v.55h-.51v.55h-.52v.54H753v.55h-.51V256.59h57.85v-.54h.51v-.55h.52V255h.51v-.55h.51v-.55h.52v-.54h.51v-.55H814v-.55h.52v-.55H815v-.54h.51v-.55H816V250h.51v-.55H817v-.54h.52v-.55h.51v-.55h.51v-.55h.52v-.55h.51v-.54h.52v-.55h.51v-.55h.51v-.55h.52V244h.51v-.55h.51v-.55h.52v-.55h.51v-.54h.51v-.55h.52v-.55h.51v-.55h.51v-.55h.52V103.87H796.4A25.75,25.75,0,0,0,805.18,97.65Zm116.4,104c2.9-3,5.82-6.11,8.74-9.19l.1-.11.41-.44.1-.11.42-.44.1-.11c.14-.14.27-.29.41-.44l.1-.11.41-.43.11-.12.41-.43.1-.11.41-.44.1-.11.42-.44.09-.11.42-.43.1-.12.41-.43.1-.11.42-.44.09-.11.42-.44.1-.11c.14-.14.27-.29.41-.44l.1-.11.42-.43.1-.11c.13-.15.27-.3.41-.44l.1-.11.41-.44.1-.11.42-.44.1-.11.41-.43.1-.12.41-.43.1-.11.42-.44.1-.11c.13-.15.27-.29.41-.44l.1-.11.41-.43.1-.12.42-.43.1-.11c.13-.15.27-.29.41-.44l.1-.11c.14-.15.28-.29.41-.44l.1-.11.42-.44.1-.11.41-.43.1-.11c.14-.15.28-.29.41-.44l.1-.11.42-.44.1-.11.41-.44.1-.11.41-.43.1-.11.42-.44,37.83-42.08V103.87H856v.55h-.51V105H855v.55h-.52v.54H854v.55h-.52v.55H853v.55h-.51v.54h-.52v.55h-.51v.55h-.51v.55h-.52v.55h-.51V111h-.51v.55h-.52v.55h-.51v.55h-.51v.54h-.52v.55h-.51v.55h-.51v.55h-.52v.54h-.51v.55h-.51v.55h-.52V117h-.51v.55h-.51v.54h-.52v.55h-.51v.55h-.51v.55h-.52v.54h-.51v.55h-.52v38H899.2c-2.58,2.63-5.22,5.34-8,8.2l-.22.25-.29.3-.23.25-.28.29-.23.26-.29.29-.22.25-.29.3-.23.25-.29.3-.22.25-.29.29-.22.26-.29.29-.23.25-.29.3-.22.25-.29.3-.23.25c-.09.1-.19.19-.28.3l-.23.25-.29.29-.22.25-.29.3-.22.25-.29.3-.23.25-.29.3-.22.25-.29.29-.23.25-.28.3-.23.25-.29.3-.22.25-.29.3-.23.25-.28.29-.23.26-.29.29-.22.25-.29.3-.23.25-.28.3-.23.25-.29.3-.22.25-.29.29-.23.25-.28.3-.23.25-.29.3-.22.25-.29.3-.23.25-.28.29-.23.25-.29.3-.22.25-.29.3-.23.25-.29.3-40.22,44.69v27.92H971v-.54h.51v-.55h.52V255h.51v-.55h.52v-.55h.51v-.54h.51v-.55h.52v-.55h.51v-.55h.51v-.54h.52v-.55h.51V250h.51v-.55h.52v-.54h.51v-.55h.51v-.55h.52v-.55h.51v-.55h.51v-.54h.52v-.55h.51v-.55h.51v-.55h.52V244h.51v-.55h.51v-.55h.52v-.55h.51v-.54h.51v-.55h.52v-.55h.51v-.55h.52v-.55h.51v-38ZM680.12,101.09c-19.9,0-34.18,6.75-43.1,16.33h-.67V45.22h-57.7v.54h-.51v.55h-.52v.55h-.51v.55h-.51V48h-.52v.54h-.51v.55h-.51v.55h-.52v.55H574v.54h-.51v.55H573v.55h-.51v.55H572v.54h-.52v.55H571V54h-.51v.55h-.52v.55h-.51v.54h-.51v.55h-.52v.55h-.51v.55h-.52v.54h-.51v.55h-.51v.55h-.52v.55h-.51V60h-.51v.55h-.52v.55h-.51v.55h-.51v.55h-.52V213.57c0,16.08-.67,32.7-1.34,43h48.93l.08-.54h.43l.09-.55h.43l.08-.55h.43l.08-.55h.43l.09-.55h.43l.08-.54h.43l.08-.55h.43l.09-.55h.43l.08-.55h.43l.08-.54h.43l.09-.55H616l.08-.55h.43l.08-.55H617l.08-.54h.43l.08-.55H618l.08-.55h.44l.08-.55h.43l.08-.55h.39c10.21,9.58,23.29,12.65,36.3,12.65,20.17,0,39.22-7.76,52.28-22.78l.28-.3.51-.55.51-.55c.17-.18.35-.36.52-.55l.51-.54.51-.55c.17-.18.35-.36.52-.55l.51-.55.51-.54c.17-.19.35-.37.52-.55l.51-.55.51-.55.52-.54.51-.55.51-.55c.18-.18.35-.36.52-.55l.51-.54c.17-.19.35-.37.52-.55l.51-.55.51-.55c.17-.18.35-.36.51-.55l.52-.54.51-.55c.17-.18.35-.36.52-.55s.24-.24.35-.37c12.69-12.43,20.83-30.81,20.83-54.83C741.72,129.31,717.76,101.09,680.12,101.09Zm-15,102.64a28.15,28.15,0,0,1-7.69,1c-9.8,0-17.5-6-20-13.68a23.42,23.42,0,0,1-1.13-7.38v-24a23.48,23.48,0,0,1,.31-3.61,22.4,22.4,0,0,1,4.73-.51c17.69,0,25.82,13.05,25.82,32.52A54.49,54.49,0,0,1,665.17,203.73Zm-144.7-59.09c.16-.16.31-.33.46-.5l.52-.54.51-.55.51-.55c.18-.18.35-.36.52-.55l.51-.54.51-.55c.18-.18.35-.37.52-.55l.51-.55c.18-.18.34-.36.51-.55l.52-.54.51-.55c.18-.18.34-.37.51-.55s.35-.36.52-.55l.51-.54c.18-.18.34-.37.51-.55s.35-.37.52-.55l.51-.55q.27-.27.51-.54l.52-.55.51-.55c.18-.18.35-.36.52-.55l.51-.54.51-.55c.18-.18.35-.37.52-.55l.51-.55.51-.55c7.71-8,11.11-17.33,11.11-26.13,0-23.74-23.49-46.28-71.15-46.28-28.29,0-52.37,8.52-65.55,23.15l-.51.55c-.17.18-.35.36-.51.55l-.52.54-.51.55-.51.55c-.17.18-.35.36-.52.55l-.51.55c-.17.18-.35.36-.51.54s-.35.37-.52.55-.35.36-.51.55-.35.36-.51.55l-.52.54-.51.55c-.17.19-.35.36-.52.55l-.51.55c-.17.18-.35.36-.51.54s-.35.37-.52.55l-.51.55c-.17.18-.35.36-.51.55s-.35.36-.52.55l-.51.54-.51.55c-.17.18-.35.36-.52.55l-.51.55c-.17.18-.35.36-.51.54s-.35.37-.52.55l-.51.55c-.17.18-.35.36-.51.55s-.35.36-.52.55l-.51.54a40.33,40.33,0,0,0-11.26,28c0,13.52,7.47,26.61,23,35.81-.95.91-1.87,1.83-2.73,2.79-.17.18-.35.36-.52.55l-.51.55c-.17.18-.35.36-.51.54s-.35.37-.52.55l-.51.55c-.17.18-.35.36-.52.55l-.51.55-.51.54c-.17.19-.35.37-.52.55l-.51.55-.51.55-.52.54-.51.55-.51.55c-.17.18-.35.36-.52.55l-.51.54-.51.55c-.17.19-.35.37-.52.55l-.51.55c-.17.18-.35.36-.51.55l-.52.54-.51.55c-.17.18-.35.36-.51.55s-.35.36-.52.55l-.51.54-.51.55c-.17.19-.35.36-.52.55l-.51.55c-.17.18-.35.36-.52.55l-.51.54A41.19,41.19,0,0,0,375.46,209c0,26.18,26.1,50.36,79.21,50.36,31,0,55.64-8.42,69.61-23.14l.51-.54c.18-.18.34-.37.51-.55s.34-.37.52-.55l.51-.55c.18-.18.34-.36.51-.54s.35-.37.52-.55l.51-.55c.18-.18.34-.36.52-.55l.51-.54.51-.55c.18-.18.34-.37.51-.55s.35-.37.52-.55l.51-.55c.18-.17.34-.36.52-.54L532,228l.51-.55c.18-.18.34-.36.52-.55l.51-.54.51-.55c.18-.18.34-.37.52-.55l.51-.55c.18-.18.34-.36.51-.54s.34-.37.52-.55l.51-.55c.18-.18.34-.37.51-.55l.52-.54.51-.55c.18-.18.34-.37.51-.55s.35-.37.52-.55l.51-.55a45.1,45.1,0,0,0,13.2-32.37C552.88,166.24,537.74,151.89,520.47,144.64Zm-68.32-38.41A28.58,28.58,0,0,1,456,106c14.35,0,20,10,20,19.81a16.58,16.58,0,0,1-.23,2.63C462,124.13,452.12,116.65,452.12,107,452.12,106.73,452.14,106.48,452.15,106.23Zm26.69,103.48a27.38,27.38,0,0,1-5.88.64c-14.79,0-23.63-11.24-23.63-22.88a25.18,25.18,0,0,1,.7-5.91c.76-.29,1.53-.56,2.33-.8C466.6,184.2,479,193.52,479,207.24A20.35,20.35,0,0,1,478.84,209.71Z" class="808biz_svg__cls-2"/></g><g id="808biz_svg___3d" data-name="3d"><path d="M190.31,170l-.27-.45-.27-.44-.28-.45-.27-.44-.28-.45c-.08-.15-.18-.29-.27-.44l-.27-.45-.28-.44-.27-.45-.28-.44c-.08-.15-.18-.3-.27-.45l-.27-.44-.28-.45-.27-.44c-.09-.15-.18-.3-.28-.45s-.18-.29-.27-.44l-.27-.45-.28-.44c-.08-.15-.18-.3-.27-.45l-.27-.44-.28-.45-.27-.44-.28-.45c-.08-.15-.18-.29-.27-.44l-.27-.45-.28-.44-.27-.45-.28-.44c-.08-.15-.18-.3-.27-.45A49.29,49.29,0,0,0,168.19,142c14.6-9.35,20.8-22.14,20.8-34a36.37,36.37,0,0,0-5.71-19.46l-.27-.44c-.1-.15-.19-.3-.28-.45l-.27-.44c-.09-.15-.18-.3-.28-.45l-.27-.44-.27-.45c-.1-.14-.19-.29-.28-.44l-.27-.45-.28-.44-.27-.45-.27-.44c-.09-.15-.18-.3-.28-.45l-.27-.44c-.09-.15-.18-.3-.28-.45l-.27-.44-.27-.45-.28-.44-.27-.45-.27-.44c-.1-.15-.19-.3-.28-.45l-.27-.44c-.09-.15-.18-.3-.28-.45l-.27-.44-.27-.45-.28-.44-.27-.45-.28-.44-.27-.45-.27-.44c-.09-.15-.18-.3-.28-.45-9.45-15.48-31.27-27.26-65.71-27.26-43,0-76.29,19.66-76.29,50.6A36.71,36.71,0,0,0,38.67,118l.27.45.28.44.27.45c.09.15.18.3.28.44s.18.3.27.45l.27.44.28.45.27.44.27.45.28.44.27.45c.09.15.18.3.28.44l.27.45.27.44.28.45.27.44.27.45.28.44.27.45.28.44.27.45.27.44.28.45.27.44c.09.15.18.3.28.45l.27.44.27.45.28.44.27.45c.09.15.18.3.28.44A44,44,0,0,0,55,141.12c-17.35,8.81-28.46,22.5-28.46,41.37a39.15,39.15,0,0,0,6.3,21.25l.27.45.28.44.27.45.27.44c.1.15.18.3.28.45l.27.44.27.45c.1.14.18.29.28.44l.27.45.28.44.27.45.27.44c.1.15.18.3.28.45l.27.44c.09.15.18.3.28.45l.27.44.27.45c.1.14.18.29.28.44l.27.45.27.44c.1.15.18.3.28.45l.27.44c.09.15.18.3.28.45l.27.44.27.45c.1.14.18.29.28.44l.27.45.28.44.27.45.27.44c10.5,16.91,34.77,29.56,73.19,29.56,49.12,0,82.29-21.11,82.29-55a40.46,40.46,0,0,0-5.89-21.26ZM115.48,93.23A21.6,21.6,0,0,1,126.76,96a24.6,24.6,0,0,1,.21,3.21c0,9-7.5,17.84-15.74,19.74a51.78,51.78,0,0,1-15.5-7.33c0-.14,0-.28,0-.43C95.72,102,101.85,93.23,115.48,93.23ZM108.07,200.8a23.94,23.94,0,0,1-14.72-4.72,23.62,23.62,0,0,1-.42-4.37c0-11.66,7.42-20.17,18.95-23.69a43.4,43.4,0,0,1,17.76,8.6,21.9,21.9,0,0,1,.39,4.09C130,191.56,121.83,200.8,108.07,200.8ZM359.6,94.26l-.28-.44-.27-.45c-.09-.15-.18-.3-.28-.44l-.27-.45-.27-.44-.28-.45-.27-.44c-.09-.15-.18-.3-.28-.45l-.27-.44-.27-.45-.28-.44-.27-.45-.27-.45c-.1-.14-.19-.29-.28-.44l-.27-.44c-.09-.15-.18-.3-.28-.45l-.27-.45-.27-.44-.28-.44-.27-.45c-.09-.15-.18-.3-.28-.45l-.27-.44L353.3,84l-.28-.45-.27-.45-.27-.44-.28-.44-.27-.45c-.09-.15-.18-.3-.28-.45-11.85-19.49-32.21-33.41-65-33.41-57.82,0-80.59,44.67-80.59,93,0,20.6,4.24,41.52,14.5,58.19l.27.45.28.44.27.45.27.44.28.45.27.44.27.45.28.44.27.45.28.44.27.45.27.44.28.45.27.44c.09.15.18.3.28.45l.27.44.27.45.28.44.27.45.27.44.28.45.27.44c.09.15.18.3.28.45l.27.44.27.45.28.44.27.45.28.44.27.45.27.44c12.2,20.14,33.07,34.19,65.71,34.19,52.11,0,80-36.8,80-93,0-20.23-3.92-41.8-14.52-59ZM286.77,195.85a16.52,16.52,0,0,1-10.45-3.44c-2.84-8.86-4.27-21.38-4.14-38.22-.16-39.38,8.68-55.31,22.91-55.31a14.25,14.25,0,0,1,8.8,2.88c2.89,9,4.34,21.87,4.34,38.64C308.23,179.52,300.66,195.85,286.77,195.85Zm537-136.71c-.1-.15-.18-.3-.28-.44l-.27-.45c-.09-.15-.18-.3-.28-.44l-.27-.45-.27-.45-.28-.44-.27-.44c-.09-.15-.18-.3-.28-.45s-.17-.3-.27-.44l-.27-.45c-.09-.15-.18-.3-.28-.44l-.27-.45-.27-.44c-.1-.15-.18-.3-.28-.45l-.27-.44c-.09-.15-.18-.3-.28-.45l-.27-.44-.27-.45c-.1-.15-.18-.3-.28-.44l-.27-.45c-.09-.15-.18-.3-.28-.44s-.17-.3-.27-.45l-.27-.44c-.09-.15-.18-.3-.28-.45l-.27-.44c-.09-.15-.18-.3-.28-.45s-.17-.3-.27-.45l-.27-.44c-.09-.15-.18-.3-.28-.44-4.56-7.47-13.86-12.15-26-12.15-17.24,0-29.29,9.57-29.13,23.22a20.28,20.28,0,0,0,3.89,12.27l.22.35.27.44.27.45c.09.15.18.3.28.44l.27.45c.09.15.18.3.28.44l.27.45.27.44c.09.15.18.3.28.45l.27.44c.09.15.18.3.28.45s.17.3.27.44l.27.45c.09.15.18.3.28.44l.27.45.27.44c.09.15.18.3.28.45l.27.44c.09.15.18.3.28.45l.27.44.27.45c.09.15.18.3.28.44l.27.45c.09.15.18.3.28.44s.17.3.27.45l.07.12c4.18,8.07,13.83,13.46,26.38,13.46,17.89,0,29.78-10,29.62-23.08A21.55,21.55,0,0,0,824,59.59ZM547.77,170l-.27-.45-.27-.44-.28-.45-.27-.44-.28-.45c-.08-.15-.18-.29-.27-.44l-.27-.45-.28-.44-.27-.45-.28-.44c-.08-.15-.18-.3-.27-.45l-.27-.44-.28-.45-.27-.44-.27-.45-.28-.44-.27-.45-.28-.44c-.08-.15-.18-.3-.27-.45l-.27-.44-.28-.45-.27-.44-.27-.45-.28-.44-.27-.45-.28-.44-.27-.45-.27-.44-.28-.45A49.29,49.29,0,0,0,525.65,142c14.6-9.35,20.81-22.14,20.81-34a36.38,36.38,0,0,0-5.72-19.46l-.27-.44c-.1-.15-.19-.3-.28-.45l-.27-.44c-.09-.15-.18-.3-.28-.45l-.27-.44-.27-.45-.28-.44-.27-.45-.28-.44L538,84.1l-.27-.44c-.09-.15-.18-.3-.28-.45l-.27-.44-.27-.45c-.1-.14-.19-.29-.28-.44l-.27-.45-.28-.44-.27-.45-.27-.44c-.09-.15-.18-.3-.28-.45l-.27-.44c-.09-.15-.18-.3-.28-.45l-.27-.44-.27-.45-.28-.44-.27-.45-.27-.44c-.1-.15-.19-.3-.28-.45l-.27-.44c-.09-.15-.18-.3-.28-.45-9.45-15.48-31.27-27.26-65.71-27.26-43,0-76.29,19.66-76.29,50.6A36.71,36.71,0,0,0,396.13,118l.27.45.28.44.27.45c.09.15.18.3.28.44s.18.3.27.45l.27.44.28.45.27.44.27.45.28.44.27.45c.09.15.18.3.28.44l.27.45.27.44.28.45.27.44c.09.15.18.3.28.45s.18.3.27.44l.27.45.28.44.27.45.27.44.28.45.27.44c.09.15.18.3.28.45l.27.44.27.45.28.44.27.45c.09.15.18.3.28.44a44,44,0,0,0,8.06,9.79c-17.35,8.81-28.46,22.5-28.46,41.37a39.15,39.15,0,0,0,6.3,21.25l.27.45.28.44.27.45.27.44c.1.15.18.3.28.45l.27.44.27.45c.1.14.18.29.28.44l.27.45.28.44.27.45.27.44c.1.15.18.3.28.45l.27.44c.09.15.18.3.28.45l.27.44.27.45c.1.14.18.29.28.44l.27.45.28.44c.09.15.17.3.27.45l.27.44c.09.15.18.3.28.45l.27.44.27.44c.1.15.18.3.28.45l.27.45.28.44.27.44.27.45c10.5,16.91,34.77,29.56,73.19,29.56,49.12,0,82.29-21.11,82.29-55a40.46,40.46,0,0,0-5.89-21.26ZM472.94,93.23A21.6,21.6,0,0,1,484.22,96a24.6,24.6,0,0,1,.21,3.21c0,9-7.5,17.84-15.74,19.74a51.9,51.9,0,0,1-15.5-7.33c0-.14,0-.28,0-.43C453.18,102,459.31,93.23,472.94,93.23ZM465.53,200.8a23.94,23.94,0,0,1-14.72-4.72,23.62,23.62,0,0,1-.42-4.37c0-11.66,7.42-20.17,18.95-23.69a43.4,43.4,0,0,1,17.76,8.6,21.9,21.9,0,0,1,.39,4.09C487.49,191.56,479.29,200.8,465.53,200.8Zm522.2,5.11v-.45h-.28V205h-.27v-.45h-.28v-.44h-.27v-.45h-.27v-.44h-.28v-.45h-.27v-.44h-.27v-.45h-.28v-.44H985V201h-.28v-.44h-.27v-.45h-.27v-.44h-.28v-.45h-.27v-.44h-.28v-.45h-.27v-.44h-.27v-.45h-.28V197h-.27v-.45H982v-.44h-.28v-.45h-.27v-.44h-.28v-.45h-.27v-.44h-.27v-.45h-.28v-.44h-.27V193h-.28v-.44h-.27v-.45h-44c3.92-4,7.87-8.2,11.83-12.38l37.83-42.08V108.12h-.27v-.45h-.28v-.44h-.27v-.45H984v-.44h-.28v-.45h-.27v-.44h-.28V105h-.27v-.44h-.27v-.45h-.28v-.44h-.27v-.45h-.28v-.44h-.27v-.45h-.27v-.44H981v-.45h-.27V101h-.27v-.45h-.28v-.44h-.27v-.45h-.28v-.44h-.27v-.45h-.27v-.44h-.28v-.45h-.27v-.44h-.28V97H978v-.44h-.27V96.1h-.28v-.44h-.27v-.45h-.27v-.44h-.28v-.45h-128v38h.28v.45h.27v.44h.28v.45h.27v.44H850v.45h.28v.44h.27v.45h.27v.44h.28v.45h.27v.44h.28v.45h.27v.44h.27v.45h.28v.44h.27V139H853v.44h.27v.45h.27v.44h.28v.45h.27v.44h.28v.45h.27v.44h.27v.45h.28V143h.27v.45h.27v.44H856v.45h.27v.44h.28v.45h.27v.44h.27v.45h37.82c-3.57,3.59-7.24,7.35-11.14,11.38l-40.22,44.69v27.92h.27v.45h.28V231h.27v.45h.28v.44h.27v.45h.27v.44h.28v.45h.27v.44H846v.45h.28v.44h.27V235h.28v.44h.27v.45h.27v.44h.28v.45h.27v.44h.28v.45h.27v.44h.27v.45H849V239h.27v.45h.27v.44h.28v.45h.27v.44h.28v.45h.27v.44H851v.45h.28v.44h.27V243h.28v.44h.27v.45H988v-38ZM827.06,107.67h-.27v-.44h-.27v-.45h-.28v-.44H826v-.45h-.28v-.44h-.27V105h-.27v-.44h-.28v-.45h-.27v-.44h-.27v-.45h-.28v-.44h-.27v-.45h-.28v-.44h-.27v-.45H823V101h-.28v-.45h-.27v-.44h-.28v-.45h-.27v-.44h-.27v-.45h-.28v-.44H821v-.45h-.27v-.44h-.28V97h-.27v-.44h-.28V96.1h-.27v-.44h-.27v-.45h-.28v-.44h-.27v-.45H761V230.06h.28v.45h.27V231h.28v.45h.27v.44h.27v.45h.28v.44h.27v.45h.28v.44h.27v.45h.27v.44H764V235h.27v.44h.27v.45h.28v.44h.27v.45h.28v.44h.27v.45h.27v.44h.28v.45h.27V239h.28v.45H767v.44h.27v.45h.28v.44h.27v.45h.27v.44h.28v.45h.27v.44h.28V243h.27v.44h.27v.45h57.86V108.12h-.28ZM730.6,130.18l-.27-.44-.27-.45c-.1-.14-.18-.29-.28-.44l-.27-.45c-.1-.14-.18-.29-.28-.44l-.27-.45-.27-.44c-.1-.15-.18-.3-.28-.45l-.27-.44c-.09-.15-.18-.3-.28-.45l-.27-.44-.27-.45c-.1-.14-.18-.29-.28-.44l-.27-.45-.27-.44c-.1-.15-.18-.3-.28-.45l-.27-.44c-.1-.15-.18-.3-.28-.45l-.27-.44-.27-.45-.06-.09c-10.16-18.29-28.51-29.65-52.38-29.65-14.86,0-26.58,3.76-35.28,9.66V49.46h-.28V49h-.27v-.45h-.27v-.44h-.28v-.45H636v-.44h-.28v-.45h-.27v-.44h-.27V45.9h-.28v-.44h-.27V45h-.28v-.44h-.27v-.45h-.27v-.44h-.28v-.45h-.27v-.44H633v-.45h-.28V41.9h-.27v-.45h-.28V41h-.27v-.45h-.27v-.44h-.28v-.45h-.27v-.44h-.28v-.45h-.27v-.44h-.27v-.45H630v-.44h-.27V37h-.27v-.44h-.28v-.45h-.27v-.44h-57.7V187c0,16.08-.67,32.71-1.34,43h.31l0,.45h.3l0,.44h.3c0,.15,0,.31,0,.45h.3l0,.44h.3c0,.15,0,.31,0,.45h.3c0,.14,0,.3,0,.44h.3l0,.45h.3l0,.44h.31c0,.15,0,.31,0,.45h.3l0,.44h.3c0,.15,0,.31,0,.45h.3l0,.44h.3c0,.15,0,.31,0,.45h.31l0,.44h.3l0,.45h.3c0,.14,0,.3,0,.44h.3l0,.45h.3l0,.44h.3c0,.15,0,.31,0,.45h.3l0,.44h.3c0,.15,0,.31,0,.45h.31l0,.44h.3c0,.15,0,.31,0,.45h.3c0,.14,0,.3,0,.44h.3c0,.15,0,.31,0,.45h.3l0,.44h.31l0,.45h.3l0,.44h.3c0,.15,0,.31,0,.45h.3l0,.44h.3l0,.45H627.3l2.5-16.77h.67c10.74,15.07,26.59,19.56,42.32,19.56,36.65,0,69.64-25.55,69.64-73.9.15-16.5-4-31-11.7-42.36A2.39,2.39,0,0,0,730.6,130.18Zm-80.55,65a21.89,21.89,0,0,1-12.39-3.73,24.64,24.64,0,0,1-.25-3.53v-24a26,26,0,0,1,1.13-7.13c2.16-8,10.4-14,19.83-14,6.47,0,11.66,1.75,15.64,4.92a52.08,52.08,0,0,1,1.69,13.81C675.7,184,666,195.19,650.05,195.19Z" class="808biz_svg__cls-3"/></g><g id="808biz_svg___3d_Shadow" data-name="3d Shadow"><g class="808biz_svg__cls-4"><path d="M1008,257.92l-35-35L837.14,225v30.77" class="808biz_svg__cls-5"/><path d="M862.61,155l-25.47-25.47h74.28l-20.16,20.17" class="808biz_svg__cls-5"/><polyline points="630.21 251.55 636.58 251.55 612.17 222.9 569.73 226.08 570.79 255.79" class="808biz_svg__cls-5"/><polyline points="833.96 248.37 816.98 225.02 756.49 225.02 758.62 248.37" class="808biz_svg__cls-5"/><polyline points="197.26 236.69 170.73 213.35 49.76 219.71 54 246.24 128.28 249.43" class="808biz_svg__cls-5"/><polyline points="365.98 237.75 338.39 214.41 243.95 222.9 243.95 236.69 292.76 252.61" class="808biz_svg__cls-5"/><polyline points="548.5 237.75 523.04 214.41 407.37 219.71 407.37 233.51 464.67 255.79" class="808biz_svg__cls-5"/><polyline points="122.98 95.56 111.3 75.39 99.63 75.39 101.75 101.92" class="808biz_svg__cls-5"/><polyline points="298.07 104.05 286.4 80.7 272.6 79.64 280.03 110.41" class="808biz_svg__cls-5"/><polyline points="478.47 97.68 462.55 67.97 453 72.21 460.43 101.92" class="808biz_svg__cls-5"/><polyline points="114.49 174.08 99.63 147.55 93.26 152.86 99.63 182.57" class="808biz_svg__cls-5"/><polyline points="473.16 174.08 454.06 144.37 447.69 149.68 456.18 180.45" class="808biz_svg__cls-5"/><polyline points="659.93 148.62 647.19 121.03 635.52 126.33 638.7 154.98" class="808biz_svg__cls-5"/><polyline points="823.35 88.13 808.49 71.15 794.7 75.39 794.7 93.44 808.49 93.44" class="808biz_svg__cls-5"/><polyline points="734.21 225.02 716.17 203.8 676.9 230.32 676.9 255.79" class="808biz_svg__cls-5"/><polygon points="547.44 127.39 528.34 101.92 503.94 132.7 529.4 145.43 547.44 127.39" class="808biz_svg__cls-5"/><polygon points="191.95 127.39 176.03 100.86 143.14 128.45 170.73 144.37 191.95 127.39" class="808biz_svg__cls-5"/></g></g><g id="808biz_svg__Type"><path d="M26.49,182.49c0-21.26,14.09-36,35.33-44.48v-.55c-19.45-9.21-28.76-23.8-28.76-38.92,0-30.94,33.3-50.6,76.29-50.6,47.66,0,71.16,22.54,71.16,46.28,0,14-8.59,29.22-29.35,38.63v.55c19,6.55,36.83,21.5,36.83,44.49,0,33.85-33.17,55-82.29,55C52.59,232.85,26.49,208.68,26.49,182.49ZM130,180.71c0-13.72-12.4-23-26.64-26.48-11.53,3.51-19,12-19,23.69s8.84,22.88,23.63,22.88C121.83,200.8,130,191.56,130,180.71ZM87.23,97.43c0,9.77,10,17.31,24,21.55,8.24-1.9,15.74-10.78,15.74-19.74,0-9.79-5.63-19.81-20-19.81C93.36,79.43,87.23,88.18,87.23,97.43Z" class="808biz_svg__cls-6"/><path d="M365.91,139.87c0,56.19-27.86,93-80,93-59.54,0-79.93-46.75-79.93-91.93,0-48.31,22.77-93,80.59-93C348.22,47.94,365.91,96.94,365.91,139.87Zm-102.22.53c-.31,39.64,8,55.45,23.08,55.45,13.89,0,21.46-16.33,21.46-55.45,0-37.55-7.25-55.31-21.63-55.31S263.53,101,263.69,140.4Z" class="808biz_svg__cls-6"/><path d="M384,182.49c0-21.26,14.09-36,35.33-44.48v-.55c-19.45-9.21-28.76-23.8-28.76-38.92,0-30.94,33.3-50.6,76.29-50.6,47.66,0,71.16,22.54,71.16,46.28,0,14-8.59,29.22-29.35,38.63v.55c19,6.55,36.83,21.5,36.83,44.49,0,33.85-33.17,55-82.29,55C410.05,232.85,384,208.68,384,182.49Zm103.54-1.78c0-13.72-12.4-23-26.64-26.48-11.53,3.51-19,12-19,23.69s8.84,22.88,23.63,22.88C479.29,200.8,487.49,191.56,487.49,180.71Zm-42.8-83.28c0,9.77,10.05,17.31,24,21.55,8.24-1.9,15.74-10.78,15.74-19.74,0-9.79-5.63-19.81-20-19.81C450.82,79.43,444.69,88.18,444.69,97.43Z" class="808biz_svg__cls-6"/><path d="M569.88,230.06c.67-10.31,1.34-26.94,1.34-43V35.67h57.7v72.2h.67c8.93-9.58,23.2-16.33,43.1-16.33,37.64,0,61.6,28.22,61.25,67.41,0,48.35-33,73.9-69.64,73.9-15.73,0-31.58-4.48-42.32-19.55h-.67l-2.5,16.76Zm59-55.93a23.71,23.71,0,0,0,1.13,7.38c2.5,7.71,10.21,13.68,20,13.68,15.92,0,25.65-11.15,25.65-33.67,0-19.47-8.13-32.52-25.82-32.52-9.43,0-17.66,5.93-19.83,14a26.42,26.42,0,0,0-1.13,7.14Z" class="808biz_svg__cls-6"/><path d="M818.9,57.31c.16,13.11-11.73,23.09-29.62,23.09-17.06,0-28.8-10-28.64-23.09-.16-13.65,11.89-23.22,29.13-23.22C807.17,34.09,818.72,43.66,818.9,57.31ZM761,230.06V94.32h57.86V230.06Z" class="808biz_svg__cls-6"/><path d="M843.56,202.14l40.22-44.69c8.86-9.16,16.56-16.94,24.49-24.49v-.69H848.61v-38h128v29.54l-37.83,42.08c-8.66,9.13-17.27,18.37-25.52,25.49v.68h66.22v37.95h-136Z" class="808biz_svg__cls-6"/></g></svg>