<?xml version="1.0" standalone="no"?><!DOCTYPE svg PUBLIC "-//W3C//DTD SVG 20010904//EN"
 "http://www.w3.org/TR/2001/REC-SVG-20010904/DTD/svg10.dtd"><svg fill="currentColor" preserveAspectRatio="xMidYMid meet" version="1.0" viewBox="0 0 24.000000 24.000000"><g fill="#000000" stroke="none" transform="translate(0.000000,24.000000) scale(0.050000,-0.050000)"><path d="M115 449 c-158 -86 -148 -352 16 -421 228 -95 423 100 319 320 -57
120 -213 167 -335 101z m267 -67 c131 -132 31 -342 -163 -342 -95 0 -179 94
-179 200 0 182 213 270 342 142z"/><path d="M285 349 c-33 -23 -54 -26 -83 -10 -22 12 -60 21 -86 20 -39 0 -35
-6 24 -32 l70 -32 -65 -18 c-36 -10 -65 -27 -65 -37 0 -10 11 -15 25 -11 142
44 170 21 95 -74 -57 -73 -50 -112 10 -55 30 29 50 69 50 103 0 61 19 69 81
36 43 -22 56 8 15 33 -16 10 -11 20 15 30 34 13 33 15 -11 17 -48 2 -49 3 -11
32 54 41 -5 39 -64 -2z"/></g></svg>