<svg xmlns:xlink="http://www.w3.org/1999/xlink" xml:space="preserve" id="palms_svg__Layer_1" x="0px" y="0px" fill="currentColor" style="enable-background:new 0 0 595.28 595.28;" version="1.1" viewBox="0 0 595.28 595.28"><style type="text/css">.palms_svg__st0{fill:#27AAE1}.palms_svg__st1{fill:#F26D79}.palms_svg__st2{fill:#FBB040}.palms_svg__st3{fill:#46A480}</style><g><path d="M40.07,403.89c31.18-15.83,101.63-20.59,206.24,27.94c129.05,59.87,206.82,58.8,249.51,27.97
		c7.03-5.08,14.44-4.99,5.56,10.66c-22.73,40.06-97.69,60.7-157.3,46.1C203.19,482.06,173.95,419.2,41,416.98
		C34.22,416.87,26.6,410.73,40.07,403.89z M63.12,447.51c99.95,13.58,174.98,116.53,263.44,128.19
		c74.14,9.78,115.29-28.11,131.23-47.66c5.31-6.52,1.33-7.25-1.96-5.58c-90.44,45.97-198.51-9.19-280.28-53.22
		c-49.76-26.8-89.59-33.83-113.53-33.13C45.21,436.59,50.22,445.75,63.12,447.51z" class="palms_svg__st0"/><path d="M542.51,140.62c-5.19-5.84-29.79-7.66-55.59-7.88l2.37-9.18l19.72,3.57l-4.93-14.8l21.43,13.84
		c6.75,0.4,33.68,2.95,33.68,2.95s-15.89-29.04-54.25-32.64c-8.21-0.77-24.95,5.09-40.44,11.55c4.16-6.14,7.76-12.24,9.12-16.58
		c3.97-12.67,2.4-22.44,2.4-22.44l-15.49,7.7l12.9-18.6L468.28,18c0,0-30.01,34.8-34.99,46.33c-2.68,6.21-4.11,22.79-4.85,36.77
		c-5.2-9.74-12.78-20.48-23.09-26.88c-22.4-13.89-77.29-1.65-77.29-1.65l25.17,15.99l23.31-1.53l-12.19,9.92
		c0,0,19.13,9.79,34.45,21.89c-16.06-3.83-37.95-7.46-57.72-5.35c-36.89,3.94-56.96,54.08-56.96,54.08l34.96-12.61l16.17-15.28
		l2.24,13.92l20.21-14.64l3.02,13.83l24.49,0.45c-12.32,8.07-27.82,21.95-29.21,41.2c-1.28,8.29-2.72,23.36-3.73,35.02
		c-3.53-8.39-8.93-17.92-16.48-22.61c-15.18-9.42-61.38-0.54-61.38-0.54l26.07,15.92l15.8-1.04l-8.26,6.73
		c0,0,12.97,6.63,23.35,14.84c-10.89-2.59-25.72-5.06-39.13-3.63c-25.01,2.67-38.61,36.66-38.61,36.66l33.27-6.48l7.06-14.67
		l5.43,12.49l21.41-0.15c-8.31,5.73-18.08,15.16-18.5,28.03c-0.74,22.56,5.69,32.5,5.69,32.5c6.5-20.31,17.27-31.5,17.27-31.5
		l-3.65-13.68l7.85,3.35c3.87-5.1,11.43-11.31,17.85-16.14c-1.5,32.28-4.49,97.19-5.53,123.66c-66.18,2.2-101.98,14.13-101.98,14.13
		s104.29,55.4,179.24,52.14c74.96-3.26,89.62-52.14,89.62-52.14c-22.57-4.3-43.85-7.46-63.82-9.71
		c-1.13-48.25-4.36-187.15-5.29-237.84c9.89,9.11,21.42,19.51,27.95,24.65l13.91-8.05l-8.48,16.04c0,0,19.4,19.27,29.85,43.93
		c0,0,10.83-32.18,4.84-48.89c-2.86-8-8.6-17.5-15.93-25.35l25.47,4.2l10.58-6.19l2.46,16.03l44.17,20.76
		C574.38,196.97,554.22,153.79,542.51,140.62z M395.99,182.21c6.52-8.61,20.17-19.36,30.28-26.74c-0.83,15.69-2.36,44.58-4.08,77.73
		c-5.09-2.71-11.34-4.87-18.87-5.57c-5.83-0.55-17.99,3.84-28.89,8.45l15.69-22.68l-13.78,3.11c7.1-12.45,13.47-19.06,13.47-19.06
		l-5.39-20.18L395.99,182.21z M421.09,254.38c-4.99-1.04-11.81-1.63-19.33-1.94l1.93-9.18c0,0,15.96,4.64,17.72,4.79
		C421.31,250.16,421.2,252.27,421.09,254.38z M362.07,392.91c-0.21-19.73-0.92-85.12-1.33-120.73c6.27,5.75,13.15,11.92,17.2,15.1
		l8.02-2.36l-4.34,7.77c0,0,13.15,13.06,20.23,29.78c0,0,6.27-17.53,2.21-28.86c-1.49-4.15-8.11-15.52-11.87-19.93l21.29,6.53
		l6.55-5.15c-2.33,45.23-4.65,91.5-5.93,119.75C395.33,393.44,377.98,392.89,362.07,392.91z" class="palms_svg__st3"/><path d="M406.02,336.69c-0.51,18.48-1.68,31.33-2.26,43.87c-10.41-0.6-20.75-0.98-30.93-1.13
		c-0.2-18.7-1.68-47.93-0.86-75.32c0.23-7.6,2.59-3.02,3.54-1.86c3.22,3.96,10.8,13.77,16.34,24.46c2.75,5.31,7.46,6.36,10.77,6.3
		C404.41,332.97,406.11,333.08,406.02,336.69z M331.33,378.71c0.81-19.42,2.38-45.2,3.36-71.33c0.2-5.44-2.4-2.91-3.65-1.28
		c-3.03,3.95-7.24,13.07-12.7,24.78c-3.73,8-13.15,11.62-19.47,2.59c-0.9-1.28-8.16-22.47-5.3-50.01c0.54-5.16-2.4-3.87-4.59-3.45
		c0,0-21.55,3.77-28.69,5.27c-6.19,1.3-12.94,0-15.03-2.53c-2.54-3.06-3.19-7.27-1.72-10.96c0.61-1.54,15.41-32.71,42.04-42.45
		c5.48-2,0.7-4.03-0.31-4.54c-4.24-2.1-16.53-9.2-16.53-9.2c-3.83-2.34-5.83-6.79-5.03-11.21c0.8-4.42,4.3-7.59,8.64-8.73
		c33.92-8.89,62.68-2.03,69.16,1.98c3.51,2.17,3.4-2.56,3.68-4.42c0.86-10.66,4.12-17.33,9.96-24.91c3.62-4.71,1.9-6.7,1.09-7.6
		c-3.26-3.62-6.88-1.09-12.38,1.71c-2.07,1.05-9.34,2.99-14.8-1.93c0,0-4.37,4.42-5.77,4.93c0,0-24.04,8.07-31.87,10.86
		c-1.2,0.43-10.86,3.26-15.12-1.14c-2.98-3.07-3.86-7.61-2.27-11.58c0.92-2.3,23.15-54.94,65.89-60.85
		c15.24-2.11,8.66-5.34,6.91-6.45l-24.6-14.51c-3.71-2.36-9.8-11.78-0.02-17c5.43-2.9,2.67-4.29,0.66-4.69
		c-15.81-3.09-32.13-4.73-48.85-4.73C134.23,55.33,20.9,168.66,20.9,308.45c0,26.69,4.14,52.4,11.8,76.56
		c14.43-5.05,80.06-28.08,191.74,13.97C225.76,396.83,274.42,375.81,331.33,378.71z M513.08,239.86c-0.89,4.42-5.37,7.22-9.88,7.39
		c-0.14,0-0.28,0.01-0.42,0.01c-4.35,0-8.29-2.6-10-6.63c-8.02-18.93-29.68-43.47-38.52-52.63c-1.57-1.63-3.28,0.21-3.24,2.01
		c1.19,56.74,3.32,145.15,4.46,194.32c18.21,2.27,55.58,8.8,55.77,8.85c10.26-27.52,15.9-53.64,15.9-84.74
		c0-23.48-3.2-46.2-9.19-67.77C517.16,237.79,514.14,234.58,513.08,239.86z M413.81,180.54c-10.38,14.89-14.03,31.55-15.13,38.12
		c-0.31,1.84,1.66,2,2.91,1.61c4.6-1.44,10.44-2.34,10.44-2.34s4.26-27.09,5.51-36.15C417.67,180.8,418.54,173.74,413.81,180.54z" class="palms_svg__st2"/></g></svg>